<?xml version="1.0" standalone="no"?>
<!DOCTYPE svg PUBLIC "-//W3C//DTD SVG 20010904//EN"
 "http://www.w3.org/TR/2001/REC-SVG-20010904/DTD/svg10.dtd">
<svg version="1.0" xmlns="http://www.w3.org/2000/svg"
 width="48.000000pt" height="48.000000pt" viewBox="0 0 48.000000 48.000000"
 preserveAspectRatio="xMidYMid meet">
<metadata>
Created by potrace 1.16, written by Peter Selinger 2001-2019
</metadata>
<g transform="translate(0.000000,48.000000) scale(0.100000,-0.100000)"
fill="#000000" stroke="none">
<path d="M135 461 c-87 -40 -135 -120 -135 -223 1 -143 97 -238 242 -238 69 0
130 23 162 59 26 28 12 40 -22 18 -59 -39 -95 -49 -159 -45 -77 5 -135 41
-171 108 -20 38 -23 56 -20 112 4 82 39 139 108 176 38 20 56 23 112 20 55 -3
75 -9 110 -33 53 -38 88 -104 91 -172 2 -57 -4 -68 -45 -78 -24 -6 -28 -4 -28
13 0 27 -60 40 -104 23 -28 -10 -33 -8 -58 17 -25 25 -27 30 -17 58 7 17 9 46
5 67 -7 37 -7 37 -56 37 l-50 0 0 -47 c1 -121 113 -233 235 -233 38 0 45 3 45
20 0 16 7 20 33 20 51 0 67 25 67 101 -1 103 -53 186 -142 223 -52 22 -153 20
-203 -3z"/>
</g>
</svg>
